# xmcd
#
# Track frame offsets: 
#        150
#        24625
#        60550
#        85250
#        113512
#        144875
#        161362
#        197975
#        229712
#        260475
#
# Disc length: 3836 seconds
#
# Revision: 1
# Processed by: cddbd v1.5.2PL0 Copyright (c) Steve Scherf et al.
# Submitted via: ExactAudioCopy v1.1
#
DISCID=7a0efa0a
DTITLE=?? , ??? - ???????????
DYEAR=1996
DGENRE=??
TTITLE0=???????
TTITLE1=????????
TTITLE2=??????
TTITLE3=??????
TTITLE4=????????????
TTITLE5=????
TTITLE6=?????????
TTITLE7=????????????
TTITLE8=?????????
TTITLE9=?????
EXTD=
EXTT0=
EXTT1=
EXTT2=
EXTT3=
EXTT4=
EXTT5=
EXTT6=
EXTT7=
EXTT8=
EXTT9=
PLAYORDER=
